<svg id="f85e3fa0-c52e-49ba-b2b8-d94626e8cb6e" data-name="Layer 1" xmlns="http://www.w3.org/2000/svg" xmlns:xlink="http://www.w3.org/1999/xlink" viewBox="0 0 256 256"><defs><mask id="aa134f42-5ddd-4b42-a09f-cc1a94e75069" x="26.65" y="16.29" width="202.7" height="223.61" maskUnits="userSpaceOnUse"><g id="aa9684cb-4adf-4020-ad99-f5c1f52126c0" data-name="mask-2"><polygon id="bd3522c9-ae21-477a-92e0-9217882e0163" data-name="path-1" points="26.74 16.29 229.35 16.29 229.35 239.89 26.74 239.89 26.74 16.29" fill="#fff" fill-rule="evenodd"/></g></mask><linearGradient id="be7b7f78-e26b-4008-82c3-a807be09eb82" x1="-349.1" y1="13.44" x2="-345.99" y2="17.17" gradientTransform="translate(13278.19 -527.77) scale(37.97 41.88)" gradientUnits="userSpaceOnUse"><stop offset="0" stop-color="#fd4e8b"/><stop offset="1" stop-color="#fd8262"/></linearGradient></defs><g id="e6a27ed1-0127-4e37-b4f7-0c166d9c6be1" data-name="Group-21"><g mask="url(#aa134f42-5ddd-4b42-a09f-cc1a94e75069)"><path id="eb28a607-54f8-4584-b932-cb447fbfc8ea" data-name="Fill-19" d="M212.86,140.22,85.13,212.9V167.83l50.1-28.5,59.28-33.69,18.35,10.5a13.81,13.81,0,0,1,0,24.08ZM57.35,228.69A14.11,14.11,0,0,1,36.18,216.6V71.24l39.6,22.49V218.28Zm29.55-72.6-1.77,1V99.2L136,128.13l-11.56,6.62L86.9,156.09ZM43.23,27.49a14.52,14.52,0,0,1,7.06-1.85,14.27,14.27,0,0,1,7.06,1.85l127.72,72.68-39.6,22.58-3.71-2.12L36.09,60.48V39.57a13.75,13.75,0,0,1,7.14-12.08ZM217.53,108,62,19.46a23.44,23.44,0,0,0-23.55,0A23,23,0,0,0,26.65,39.57v177a23,23,0,0,0,11.82,20.12,23.62,23.62,0,0,0,23.64,0l155.42-88.48a23,23,0,0,0,0-40.22Z" fill-rule="evenodd" fill="url(#be7b7f78-e26b-4008-82c3-a807be09eb82)"/></g></g></svg>